<svg width="24" height="25" viewBox="0 0 24 25" fill="none" xmlns="http://www.w3.org/2000/svg">
<path d="M7.27003 16.5874H20.3143C21.7934 16.5874 23 15.3807 23 13.9016V8.41341C23 8.40855 23 8.39881 23 8.39395C23 8.37935 23 8.36962 23 8.35503C23 8.3453 23 8.33556 22.9951 8.32583C22.9951 8.3161 22.9903 8.30151 22.9903 8.29178C22.9903 8.28204 22.9854 8.27231 22.9854 8.26258C22.9805 8.25285 22.9805 8.24312 22.9757 8.22852C22.9708 8.21879 22.9708 8.20906 22.9659 8.19933C22.9611 8.1896 22.9611 8.17987 22.9562 8.17014C22.9513 8.16041 22.9465 8.15068 22.9416 8.13608C22.9368 8.12635 22.9319 8.11662 22.927 8.11175C22.9222 8.10202 22.9173 8.09229 22.9124 8.08256C22.9076 8.07283 22.9027 8.06797 22.8978 8.05823C22.893 8.0485 22.8832 8.03877 22.8784 8.02904C22.8735 8.01931 22.8686 8.01445 22.8589 8.00471C22.854 7.99498 22.8443 7.99012 22.8394 7.98039C22.8346 7.97066 22.8248 7.96579 22.82 7.95606C22.8151 7.94633 22.8054 7.94146 22.8005 7.9366C22.7908 7.92687 22.7859 7.922 22.7762 7.91227C22.7665 7.90741 22.7616 7.89768 22.7519 7.89281C22.7421 7.88794 22.7324 7.87821 22.7227 7.87335C22.7129 7.86848 22.7081 7.86362 22.6983 7.85875C22.6886 7.85389 22.6789 7.84902 22.6692 7.83929C22.6594 7.83442 22.6497 7.82956 22.64 7.82469C22.6302 7.81983 22.6205 7.81496 22.6108 7.8101C22.601 7.80523 22.5913 7.80037 22.5816 7.7955C22.5718 7.79064 22.5621 7.79063 22.5524 7.78577C22.5427 7.7809 22.5281 7.77604 22.5183 7.77604C22.5086 7.77604 22.4989 7.77117 22.494 7.77117C22.4794 7.76631 22.4697 7.76631 22.4551 7.76631C22.4502 7.76631 22.4453 7.76144 22.4356 7.76144L5.90284 5.47955V3.17333C5.90284 3.149 5.90284 3.12468 5.89798 3.10522C5.89798 3.10035 5.89798 3.09548 5.89311 3.08575C5.89311 3.07116 5.88825 3.05656 5.88825 3.04196C5.88338 3.02737 5.88338 3.01764 5.87852 3.00304C5.87852 2.99331 5.87365 2.98844 5.87365 2.97871C5.86879 2.96412 5.86392 2.94952 5.85905 2.93492C5.85905 2.93006 5.85419 2.92033 5.85419 2.91546C5.84932 2.90087 5.84446 2.89114 5.83473 2.87654C5.82986 2.87167 5.82986 2.86194 5.825 2.85708C5.82013 2.84735 5.81527 2.83762 5.80553 2.82789C5.80067 2.81815 5.7958 2.81329 5.79094 2.80356C5.78607 2.79383 5.78121 2.78896 5.77634 2.77923C5.77148 2.7695 5.76175 2.75977 5.75688 2.75004C5.75202 2.74517 5.74715 2.74031 5.74228 2.73544C5.73255 2.72571 5.72282 2.71598 5.71309 2.70625C5.70823 2.70138 5.70336 2.69652 5.69849 2.69165C5.68876 2.68192 5.67903 2.67219 5.66444 2.66246C5.65957 2.65759 5.64984 2.65273 5.64498 2.64786C5.63524 2.63813 5.62551 2.63327 5.61578 2.62354C5.60119 2.61381 5.58659 2.60407 5.57686 2.59921C5.57199 2.59434 5.56713 2.59434 5.56226 2.58948C5.5428 2.57975 5.51847 2.57002 5.49901 2.56029L1.91318 1.052C1.57747 0.910902 1.1931 1.0666 1.052 1.40231C0.910902 1.73803 1.0666 2.1224 1.40231 2.26349L4.58431 3.60636V6.58401V7.05595V10.6758V13.9114V17.9983C4.58431 19.3607 5.60605 20.4894 6.92459 20.6597C6.68618 21.0587 6.54508 21.5258 6.54508 22.022C6.54508 23.4865 7.73711 24.6737 9.19675 24.6737C10.6564 24.6737 11.8484 23.4817 11.8484 22.022C11.8484 21.5355 11.717 21.0733 11.4835 20.6841H17.3901C17.1566 21.0782 17.0252 21.5355 17.0252 22.022C17.0252 23.4865 18.2173 24.6737 19.6769 24.6737C21.1365 24.6737 22.3286 23.4817 22.3286 22.022C22.3286 20.5624 21.1365 19.3704 19.6769 19.3704H7.27003C6.51102 19.3704 5.89798 18.7525 5.89798 17.9983V16.2176C6.29694 16.4511 6.76889 16.5874 7.27003 16.5874ZM10.5396 22.0172C10.5396 22.7567 9.93629 23.3552 9.20161 23.3552C8.46693 23.3552 7.86362 22.7519 7.86362 22.0172C7.86362 21.2825 8.46693 20.6792 9.20161 20.6792C9.93629 20.6792 10.5396 21.2776 10.5396 22.0172ZM21.0198 22.0172C21.0198 22.7567 20.4165 23.3552 19.6818 23.3552C18.9471 23.3552 18.3438 22.7519 18.3438 22.0172C18.3438 21.2825 18.9471 20.6792 19.6818 20.6792C20.4165 20.6792 21.0198 21.2776 21.0198 22.0172ZM20.3143 15.2737H7.27003C6.51102 15.2737 5.89798 14.6558 5.89798 13.9016V10.6661V7.04622V6.80295L21.6863 8.9778V13.8968C21.6863 14.6606 21.0684 15.2737 20.3143 15.2737Z" fill="#C6A464" stroke="#C6A464" stroke-width="0.5"/>
</svg>
