<?xml version="1.0" encoding="utf-8"?>
<!-- Generator: Adobe Illustrator 23.0.0, SVG Export Plug-In . SVG Version: 6.00 Build 0)  -->
<svg version="1.1" id="Слой_1" xmlns="http://www.w3.org/2000/svg" xmlns:xlink="http://www.w3.org/1999/xlink" x="0px" y="0px"
	 viewBox="0 0 22 21" style="enable-background:new 0 0 22 21;" xml:space="preserve">
<style type="text/css">
	.st0{fill:none;stroke:#C6A464;stroke-width:2;}
</style>
<path class="st0" d="M10.2,3.4L11,4.6l0.8-1.2c0.4-0.5,0.8-1,1.2-1.4v0c0.9-0.7,1.8-1,2.8-1c1.4,0,2.7,0.6,3.6,1.7 M10.2,3.4
	C9.8,2.9,9.4,2.4,9,2C8.1,1.3,7.2,1,6.1,1C4.7,1,3.5,1.6,2.5,2.7C1.6,3.8,1,5.4,1,7.1c0,1.7,0.6,3.3,2,5.1l0,0
	c1.3,1.6,3.1,3.3,5.3,5.4l0,0l0,0c0.8,0.7,1.6,1.5,2.5,2.3l0,0C10.9,20,10.9,20,11,20c0.1,0,0.1,0,0.2-0.1l0,0
	c0.9-0.8,1.8-1.6,2.5-2.3l0,0l0,0 M13.7,17.6 M13.7,17.6c2.2-2,4.1-3.7,5.3-5.4 M19.5,2.7c1,1.1,1.5,2.7,1.5,4.4
	c0,1.7-0.6,3.3-2,5.1 M13.7,17.6 M19,12.2l0.8,0.6L19,12.2z"/>
</svg>
