<svg id="Слой_1" data-name="Слой 1" xmlns="http://www.w3.org/2000/svg" viewBox="0 0 31 31"><defs><style>.cls-1{fill:none;stroke:#000;stroke-width:1.4px;}</style></defs><title>icon2</title><circle class="cls-1" cx="15.5" cy="15.5" r="14.8"/><path d="M10.54,11.75H11v-.5h-.5Zm.09,8.17-.36.36,0,0,0,0Zm.45,0,.33.38h0Zm.09-8.17v-.5h-.5v.5Zm1.82-.1-.35-.35h0v0Zm-4.28-.44-.37-.33h0Zm0,.44L8.34,12h0v0Zm1.33.1v7.94h1V11.75Zm0,7.94a.85.85,0,0,0,.23.59l.71-.71a.16.16,0,0,1,0,.07.17.17,0,0,1,0,.05Zm.29.63a.85.85,0,0,0,.53.18v-1h.07Zm.53.18a.81.81,0,0,0,.55-.2l-.65-.76.05,0h0Zm.55-.2a.78.78,0,0,0,.26-.61h-1a.18.18,0,0,1,0-.05.35.35,0,0,1,.08-.1Zm.26-.61V11.75h-1v7.94Zm-.5-7.45h1.6v-1h-1.6Zm1.6,0a.77.77,0,0,0,.6-.26l-.76-.65a.23.23,0,0,1,.1-.07h.06Zm.58-.23a.83.83,0,0,0,.23-.58h-1l0-.07a.15.15,0,0,1,0-.06Zm.23-.58a.84.84,0,0,0-.21-.59.83.83,0,0,0-.6-.23v1a.32.32,0,0,1-.13-.07.24.24,0,0,1-.06-.11Zm-.81-.82H9v1h3.82ZM9,10.61a.8.8,0,0,0-.61.27l.75.66a.13.13,0,0,1-.07.05.12.12,0,0,1-.07,0Zm-.61.28a.81.81,0,0,0-.2.54h1a.11.11,0,0,1,0,.05l0,.06Zm-.2.54a.81.81,0,0,0,.2.55l.75-.65a.09.09,0,0,1,0,.06.1.1,0,0,1,0,0Zm.22.58a.85.85,0,0,0,.59.23v-1H9l.07,0Zm.59.23h1.59v-1H9Zm11.93-1.07-.4.3v0h0Zm-.51.11L19.94,11h0ZM18.11,15l-.43.26.43.69.42-.69Zm-2.27-3.68-.43.24h0Zm-.49,8.64-.35.36h0Zm.55-7.36.42-.26-.92-1.51v1.77Zm1.93,3.16.43-.25h0Zm.55,0L18,15.46h0Zm1.95-3.16h.5V10.8l-.93,1.5Zm.09,7.36-.35.36,0,0,0,0Zm1-.24V11.43h-1v8.25Zm0-8.25a.9.9,0,0,0-.22-.59l-.75.66,0,0v0Zm-.19-.56a.74.74,0,0,0-.6-.3v1l-.13,0a.22.22,0,0,1-.07-.07Zm-.6-.3a.88.88,0,0,0-.74.44l.85.53h0l-.05,0h-.06Zm-.74.45-2.26,3.67.85.53,2.26-3.68Zm-1.41,3.67L16.27,11l-.85.52,2.26,3.68ZM16.28,11a.83.83,0,0,0-.73-.46v1h-.07l-.05,0s0,0,0,0Zm-.73-.46a.75.75,0,0,0-.61.28.92.92,0,0,0-.18.58h1c0-.07,0,0,0,0a.2.2,0,0,1-.1.08l-.07,0Zm-.79.86v8.25h1V11.43Zm0,8.25a.83.83,0,0,0,.24.6l.7-.71a.15.15,0,0,1,.05.07v0Zm.27.62a.79.79,0,0,0,.54.2v-1h0l.06,0Zm.54.2a.79.79,0,0,0,.83-.82h-1a.19.19,0,0,1,.06-.11.2.2,0,0,1,.11-.07Zm.83-.82V12.56h-1v7.12Zm-.93-6.85L17.41,16l.85-.52L16.32,12.3ZM17.41,16a.8.8,0,0,0,.7.44v-1h.08l.06,0h0Zm.7.44a.81.81,0,0,0,.7-.44L18,15.47s0,0,0,0l.06,0h.09Zm.7-.43,2-3.16-.86-.53L18,15.46Zm1-3.43v7.12h1V12.56Zm0,7.12a.83.83,0,0,0,.24.6l.7-.71a.15.15,0,0,1,.05.07v0Zm.29.64a.86.86,0,0,0,.52.18v-1h.08Zm.52.18a.79.79,0,0,0,.83-.82h-1a.19.19,0,0,1,.06-.11.2.2,0,0,1,.11-.07Z" transform="translate(0 0)"/></svg>