<svg id="Слой_1" data-name="Слой 1" xmlns="http://www.w3.org/2000/svg" viewBox="0 0 146.21 63.49"><defs><style>.cls-1{fill:#47708a;}.cls-2{fill:none;stroke:#47708a;stroke-width:2px;}</style></defs><title>logo</title><path class="cls-1" d="M10.33,15.66a5.26,5.26,0,0,1,3-3h4.54V26h-12V24a13.67,13.67,0,0,0,3.15-3.32C9.81,19.15,9.46,17.93,10.33,15.66Z"/><path class="cls-1" d="M25,15.66a5.24,5.24,0,0,0-3-3H17.49V26h12V24a13.84,13.84,0,0,1-3.14-3.32C25.52,19.15,25.87,17.93,25,15.66Z"/><path class="cls-1" d="M14,11.65h7.15V9.38L19.41,7.81H15.74L14,9.38Z"/><path class="cls-1" d="M29,60.17c0,1.84-5.31,3.32-11.87,3.32S5.27,62,5.27,60.17s5.31-4.88,11.87-4.88S29,58.34,29,60.17Z"/><path class="cls-2" d="M17.31,7.11c0-1.57,0-6.11-4.71-6.11C8.22,1,2.47,6.24,1.25,16S3.39,31.9,8.06,35.56,14.52,38.7,16.44,42c1.53,2.65,1,12.69.87,16.06l-1.39,3"/><rect class="cls-1" x="15.04" y="45.69" width="4.54" height="11.17"/><path d="M42.59,10v16.8H45.9V21.26h3a5.62,5.62,0,0,0,4.08-1.63,5.37,5.37,0,0,0,1.66-4,5.37,5.37,0,0,0-1.66-4A5.63,5.63,0,0,0,48.85,10Zm3.31,8.19V13.08h3a2.42,2.42,0,0,1,2.45,2.54,2.44,2.44,0,0,1-2.45,2.55Zm23.64,8.61-3.72-6.33a5.47,5.47,0,0,0,3.24-4.9A5.6,5.6,0,0,0,63.46,10H56.74v16.8h3.32V21h2.52L66,26.78Zm-6.08-13.7a2.38,2.38,0,0,1,2.28,2.47,2.41,2.41,0,0,1-2.28,2.5h-3.4v-5ZM74.8,19.85h6.36V16.73H74.8V13.15h7V10H71.49v16.8H81.88V23.62H74.8ZM90,27.12a6.78,6.78,0,0,0,4.39-1.37A4.48,4.48,0,0,0,96,22.06a4.59,4.59,0,0,0-.62-2.38,4.87,4.87,0,0,0-1.58-1.49,4.82,4.82,0,0,0-1.06-.5,10.56,10.56,0,0,0-1.08-.41l-1.15-.38A10.66,10.66,0,0,1,88,15.84a1.58,1.58,0,0,1-.64-1.3c0-1,.84-1.68,2.2-1.68A3.36,3.36,0,0,1,92.78,15l2.78-1.6a6.41,6.41,0,0,0-6-3.77A5.85,5.85,0,0,0,85.65,11,4.44,4.44,0,0,0,84,14.64a4.07,4.07,0,0,0,1.59,3.46,11,11,0,0,0,3.48,1.56,11.26,11.26,0,0,1,2.83,1.08,1.48,1.48,0,0,1,.79,1.36c0,1-.84,1.78-2.69,1.78a3.77,3.77,0,0,1-3.86-2.57L83.35,23C84.28,25.54,86.61,27.12,90,27.12ZM96.35,10v3.17h4.51V26.78h3.31V13.15h4.54V10Zm14.21,16.8h3.31V10h-3.31Zm14.48-9v2.93h5.09c-.6,2-2.33,3.19-4.9,3.19a5.67,5.67,0,0,1-4.17-1.54,5.35,5.35,0,0,1-1.56-3.93A5.34,5.34,0,0,1,125,12.86a5.19,5.19,0,0,1,4.52,2.33l2.83-1.63a8.77,8.77,0,0,0-16.13,4.85,8.43,8.43,0,0,0,2.54,6.19,8.85,8.85,0,0,0,6.46,2.52,8.19,8.19,0,0,0,6-2.23,7.74,7.74,0,0,0,2.31-5.83v-1.3Zm14.09,2.09h6.36V16.73h-6.36V13.15h7V10H135.82v16.8h10.39V23.62h-7.08ZM51,57.13A8.68,8.68,0,0,0,58.48,53l-3-1.73A5,5,0,0,1,51,53.76a5.51,5.51,0,0,1-4.12-1.6,6.3,6.3,0,0,1,0-8.28A5.51,5.51,0,0,1,51,42.28a5,5,0,0,1,4.55,2.5l3-1.72a9,9,0,0,0-16.63,5,8.89,8.89,0,0,0,9.1,9.1Zm20.22-9.42a4.26,4.26,0,0,0,1.65-3.5,4.54,4.54,0,0,0-1.55-3.53,5.43,5.43,0,0,0-3.77-1.4H60.6v17.5H68a5.58,5.58,0,0,0,3.88-1.42,4.72,4.72,0,0,0,1.57-3.65A4.32,4.32,0,0,0,71.17,47.71Zm-3.67-5.2a1.83,1.83,0,0,1,1.87,1.92,1.86,1.86,0,0,1-1.87,1.93H64.05V42.51ZM64.05,53.56V49.43h4a2.07,2.07,0,0,1,0,4.13Zm15.13-4h6.63V46.31H79.18V42.58h7.25v-3.3H75.73v17.5H86.56v-3.3H79.18Zm8.51-10.28v3.3h4.7v14.2h3.45V42.58h4.73v-3.3Zm35.9-.35a8.71,8.71,0,0,0-5.72,2,8.8,8.8,0,0,0-3.08,5.17h-2.6V39.28h-3.45v17.5h3.45V49.43h2.53a8.81,8.81,0,0,0,3,5.53,9.08,9.08,0,0,0,15-6.93A8.68,8.68,0,0,0,130,41.58,8.78,8.78,0,0,0,123.59,38.93Zm0,3.35a5.49,5.49,0,0,1,4,1.63,6.06,6.06,0,0,1,0,8.25,5.86,5.86,0,0,1-8.05,0,6.11,6.11,0,0,1,0-8.28A5.52,5.52,0,0,1,123.59,42.28Zm11.52-3v17.5h3.45V42.58h6.5v-3.3Z"/></svg>